# xmcd
#
# Track frame offsets:
#	150
#	14776
#	25507
#	37515
#	50150
#	65245
#	78525
#	92808
#	102543
#	113320
#	128517
#	141956
#	154984
#	179830
#
# Disc length: 2569 seconds
#
# Revision: 0
# Processed by: cddbd v1.5.2PL0 Copyright (c) Steve Scherf et al.
# Submitted via: EasyCDDAExtractor 11.5.0.1
#
DISCID=be0a070e
DTITLE=Frank Sinatra - I've got you under my skin
DYEAR=2007
DGENRE=Blues
TTITLE0=I get a kick out of you
TTITLE1=America the beautifull
TTITLE2=The way you look tonight
TTITLE3=On a little street in Singapore
TTITLE4=From the bottom of my heart
TTITLE5=It's started all over again
TTITLE6=I fall in love to easely
TTITLE7=Moonlight bay
TTITLE8=Night and day
TTITLE9=Someone to watch over me
TTITLE10=A sinner kissed and angel
TTITLE11=I think of you
TTITLE12=Poor you
TTITLE13=How about you?
EXTD=
EXTT0=
EXTT1=
EXTT2=
EXTT3=
EXTT4=
EXTT5=
EXTT6=
EXTT7=
EXTT8=
EXTT9=
EXTT10=
EXTT11=
EXTT12=
EXTT13=
PLAYORDER=
